<?xml version="1.0" encoding="UTF-8"?>
<svg width="32px" height="112px" viewBox="0 0 32 112" version="1.1" xmlns="http://www.w3.org/2000/svg" xmlns:xlink="http://www.w3.org/1999/xlink">
    <!-- Generator: Sketch 48.2 (47327) - http://www.bohemiancoding.com/sketch -->
    <title>beer open</title>
    <desc>Created with Sketch.</desc>
    <defs>
        <linearGradient x1="3.061617e-15%" y1="50%" x2="100%" y2="50%" id="linearGradient-1">
            <stop stop-color="#723820" offset="0%"></stop>
            <stop stop-color="#723820" offset="49.7638819%"></stop>
            <stop stop-color="#B15326" offset="50.2596223%"></stop>
            <stop stop-color="#B15326" offset="100%"></stop>
        </linearGradient>
    </defs>
    <g id="assets" stroke="none" stroke-width="1" fill="none" fill-rule="evenodd" transform="translate(-183.000000, -247.000000)">
        <g id="beer-open" transform="translate(183.000000, 247.000000)" fill-rule="nonzero">
            <path d="M9.002,26.0215 C9.002,26.0303 9.001,26.0391 9,26.047 L9.001,26.0274 C9.002,26.0186 9.002,26.0088 9.003,26 L9.002,26.0215 Z" id="Shape" fill="#26241F"></path>
            <path d="M9.002,26 C9.002,26.0088 9.001,26.0176 9,26.0255 L9.001,26.0059 L9.002,26 Z" id="Shape" fill="#26241F"></path>
            <path d="M32,52.5852168 L32,106.89169 C32,109.713412 29.6758376,112 26.8077484,112 L5.19225156,112 C2.3241624,112 0,109.713412 0,106.89169 L0,52.5852168 C0,37.4356017 7.21802848,38.1458079 8.42115612,31.991171 C8.42828395,31.9556244 8.43565756,31.9200778 8.44278538,31.8823549 C8.44278538,31.8729242 8.44524325,31.8656698 8.44770112,31.8586572 C8.44524325,31.8562391 8.44770112,31.8562391 8.44770112,31.8538209 C8.45261686,31.8255288 8.45728682,31.7945766 8.46220256,31.7662845 C8.46933038,31.7261434 8.476704,31.6857606 8.48383182,31.6432014 C8.48874756,31.6170855 8.49095964,31.5887934 8.49587539,31.5602594 C8.49833326,31.5459924 8.50079113,31.5319672 8.50300321,31.5152821 C8.51013104,31.4727229 8.51750465,31.4277456 8.5221746,31.3827683 C8.53667604,31.2928136 8.5487196,31.1980228 8.56297525,31.0986374 C8.57501882,31.0016702 8.58706238,30.8998667 8.60156382,30.793227 C8.60647956,30.7576804 8.60869164,30.7221338 8.61360739,30.6844109 C8.62073521,30.6133177 8.63056669,30.5400483 8.63769452,30.4665369 C8.64015239,30.4546881 8.64015239,30.4428392 8.64261026,30.4285722 C8.64973808,30.3574791 8.65956957,30.2842096 8.66669739,30.208522 C8.66915526,30.1848242 8.67161313,30.1611265 8.67382521,30.1374288 C8.68095304,30.0711719 8.68586878,30.004915 8.69299661,29.9410762 C8.69545448,29.9268092 8.69545448,29.9149604 8.69791235,29.9031115 C8.70282809,29.8532979 8.70749804,29.8037262 8.71241378,29.7539126 C8.71954161,29.678225 8.72691522,29.6001192 8.73404304,29.5220135 C8.74608661,29.3776508 8.76058805,29.2284519 8.77263161,29.0770766 C8.77754735,29.0226686 8.78221731,28.9658424 8.78713305,28.9090163 L8.78713305,28.8901548 C8.79204879,28.8357468 8.79671874,28.7789206 8.80163448,28.7220944 C8.80655023,28.6701045 8.80876231,28.6156965 8.81367805,28.5610467 C8.81613592,28.5421852 8.81613592,28.5255001 8.81859379,28.5066386 C8.82105166,28.4877772 8.82105166,28.4664976 8.82350953,28.4427999 C8.83063736,28.3671122 8.8355531,28.2890065 8.84046884,28.2109007 C8.84759666,28.132795 8.8525124,28.0522711 8.85964023,27.9717472 L8.85964023,27.9598983 C8.8620981,27.9386187 8.8620981,27.9173392 8.86455597,27.8960596 C8.86947171,27.8249664 8.87414167,27.7516969 8.87905741,27.6806037 C8.88618523,27.6000799 8.89110097,27.5219741 8.89577093,27.4414502 C8.90068667,27.3727752 8.90535662,27.3041001 8.91027236,27.2354251 C8.91027236,27.2211581 8.91273023,27.2047148 8.91273023,27.1904478 C8.91764597,27.1217728 8.92231593,27.0530977 8.92723167,26.9822464 L8.92723167,26.9658031 C8.93435949,26.8594051 8.94173311,26.7503473 8.94886093,26.6415312 C8.9513188,26.5965539 8.95377667,26.5515766 8.95598876,26.5041811 C8.96311658,26.4047958 8.96803232,26.3054104 8.97516015,26.203607 C8.98007589,26.1349319 8.98228797,26.068675 8.98720371,26 L16,31.2812066 L16.1201899,31.191252 L23.0157457,26.0002418 C23.0253314,26.1658841 23.0349171,26.32935 23.0447486,26.4925741 C23.0518764,26.5967957 23.0567922,26.7007755 23.06392,26.8049971 C23.0735057,26.9897426 23.0855493,27.1718282 23.1000507,27.3517374 C23.1145521,27.5577625 23.1265957,27.7613695 23.1408513,27.9601401 C23.1553528,28.147062 23.1673963,28.3293893 23.181652,28.5068804 C23.1841099,28.5211474 23.1841099,28.5375908 23.1865677,28.5518577 C23.1936956,28.6701045 23.203527,28.786175 23.2131127,28.9022455 C23.230072,29.1152832 23.2492434,29.3234846 23.265957,29.5224971 C23.2971719,29.8586178 23.3286327,30.1758771 23.3623055,30.4670206 C23.374349,30.5806729 23.3863926,30.689489 23.3984362,30.7937106 C23.4129376,30.9003503 23.4249812,31.0021538 23.4370247,31.099121 C23.4515262,31.1985064 23.4635697,31.2932973 23.4778254,31.3832519 C23.5090404,31.6105566 23.5427132,31.8141635 23.5788439,31.9916546 C24.7819715,38.1458079 32,37.4358435 32,52.5852168 Z" id="Shape" fill="url(#linearGradient-1)"></path>
            <path d="M9.001,26.0059 L9.002,26 C9.002,26.0088 9.001,26.0176 9,26.0255 L9.001,26.0059 Z" id="Shape" fill="#FFE4CC"></path>
            <path d="M22.2449627,7 L9.75503734,7 C9.33806538,7 9,6.71988013 9,6.37437853 L9,5 C9,3.8954305 9.8954305,3 11,3 L21,3 C22.1045695,3 23,3.8954305 23,5 L23,6.37458285 C23,6.72008445 22.6619346,7 22.2449627,7 Z" id="Shape" fill="#743922"></path>
            <path d="M23,23.7368433 L16,29 L9,23.7368433 C9.00980603,23.5360575 9.01734914,23.3330489 9.02715517,23.1300404 C9.15765086,20.0500898 9.25847701,16.7863943 9.32988506,14.0109564 C9.43322557,10.0026493 9.47747845,7 9.47747845,7 L22.5225216,7 C22.5225216,7 22.5667744,10.0026493 22.6701149,14.0109564 C22.7465517,16.9698922 22.8546695,20.4803098 23,23.7368433 Z" id="Shape" fill="#F2CD30"></path>
            <path d="M16,99 C8.82025925,99 3,92.7244711 3,84.9831199 L3,64.0168801 C3,56.2755289 8.82025925,50 16,50 C23.1797408,50 29,56.2755289 29,64.0168801 L29,84.9831199 C29,92.7244711 23.1797408,99 16,99 Z" id="Shape" fill="#F2CD30"></path>
            <path d="M28,64.3863648 L28,84.6136352 C28,84.6521757 28,84.6909484 27.9977507,84.7271672 C27.9912277,85.5838811 27.8985567,86.420396 27.7291846,87.227193 C26.5644986,92.8067454 21.7489784,97 16,97 C10.2510216,97 5.43550141,92.8067454 4.27081537,87.227193 C4.10121837,86.420396 4.00877226,85.5838811 4.0022493,84.7271672 C4,84.6907162 4,84.6521757 4,84.6136352 L4,64.3863648 C4,57.5567995 9.38346767,52 16,52 C22.6165323,52 28,57.5567995 28,64.3863648 Z" id="Shape" fill="#FFE4CC"></path>
            <polygon id="Rectangle-path" fill="#F2CD30" points="4 67 28 67 28 75 4 75"></polygon>
            <polygon id="Rectangle-path" fill="#F2CD30" points="4 77 28 77 28 79 4 79"></polygon>
            <path d="M28,87 L4,87 L4,85 L28,85 C27.993204,85.685364 28.1764623,86.3545691 28,87 Z" id="Shape" fill="#F2CD30"></path>
            <path d="M8,26.5393399 L15.9985985,32 L24,26.5393399 C23.9259986,25.4231539 23.8601261,24.2287048 23.8023826,23 L15.9985985,28.3286381 L8.1948143,23 L8,26.5393399 Z" id="Shape" fill="#FFE4CC"></path>
            <path d="M21.0752351,33.1069304 C20.7403633,31.7674432 21.5547651,30.410107 22.8942523,30.0752351 C24.2337396,29.7403633 25.5910758,30.5547651 25.9259476,31.8942523 C26.1994047,32.9880804 26.6974773,33.6619434 28.2683583,35.2328244 C30.4474773,37.4119434 31.3660713,38.6547471 31.9259476,40.8942523 C32.2608195,42.2337396 31.4464177,43.5910758 30.1069304,43.9259476 C28.7674432,44.2608195 27.410107,43.4464177 27.0752351,42.1069304 C26.8017781,41.0131023 26.3037055,40.3392394 24.7328244,38.7683583 C22.5537055,36.5892394 21.6351114,35.3464357 21.0752351,33.1069304 Z" id="foam" fill="#FFFFFF"></path>
            <path d="M12.5,5 C11.1192881,5 10,3.88071187 10,2.5 C10,1.11928813 11.1192881,-2.22044605e-16 12.5,0 L19.3191656,8.8817842e-16 C22.6999464,1.66533454e-16 25.516275,2.59160976 25.7967573,5.9607356 L26.4913814,14.3044937 C26.6059305,15.6804457 25.5833613,16.8887354 24.2074094,17.0032845 C22.8314574,17.1178335 21.6231676,16.0952644 21.5086186,14.7193125 L20.8139944,6.37555437 C20.7492677,5.59806379 20.0993458,5 19.3191656,5 L12.5,5 Z" id="foam" fill="#FFFFFF"></path>
            <path d="M27,49.5 C27,48.1192881 28.1192881,47 29.5,47 C30.8807119,47 32,48.1192881 32,49.5 L32,50.5 C32,51.8807119 30.8807119,53 29.5,53 C28.1192881,53 27,51.8807119 27,50.5 L27,49.5 Z" id="foam" fill="#FFFFFF"></path>
        </g>
    </g>
</svg>