<?xml version="1.0" encoding="UTF-8"?>
<svg width="50px" height="50px" viewBox="0 0 50 50" version="1.1" xmlns="http://www.w3.org/2000/svg" xmlns:xlink="http://www.w3.org/1999/xlink">
    <!-- Generator: Sketch 48.2 (47327) - http://www.bohemiancoding.com/sketch -->
    <title>bottle draft</title>
    <desc>Created with Sketch.</desc>
    <defs>
        <linearGradient x1="-1.11022302e-14%" y1="50%" x2="100%" y2="50%" id="linearGradient-1">
            <stop stop-color="#723820" offset="0%"></stop>
            <stop stop-color="#723820" offset="49.7638819%"></stop>
            <stop stop-color="#B15326" offset="50.2596223%"></stop>
            <stop stop-color="#B15326" offset="100%"></stop>
        </linearGradient>
        <circle id="path-2" cx="11" cy="11" r="11"></circle>
    </defs>
    <g id="assets" stroke="none" stroke-width="1" fill="none" fill-rule="evenodd" transform="translate(-310.000000, -253.000000)">
        <g id="bottle-draft" transform="translate(304.000000, 247.000000)">
            <rect id="area" x="0" y="0" width="60" height="60"></rect>
            <g id="bottle" transform="translate(4.000000, 4.000000)">
                <circle fill="url(#linearGradient-1)" cx="26" cy="26" r="24"></circle>
                <g id="gloss" transform="translate(26.000000, 26.000000) rotate(185.000000) translate(-26.000000, -26.000000) translate(2.000000, 2.000000)">
                    <circle id="area" cx="24" cy="24" r="24"></circle>
                    <path d="M8.5885269,28.314725 C9.04580979,29.9514846 9.75682936,31.4823478 10.6765078,32.862237 M14.7596488,37.0635948 C15.0992376,37.3042352 15.4486188,37.5319672 15.8070776,37.7460758 M38.5357846,17.3041363 C38.3610933,16.9255349 38.1720456,16.5549192 37.9693395,16.1929874" stroke="#EAEAEA" stroke-width="3" stroke-linecap="round" stroke-linejoin="round"></path>
                </g>
            </g>
            <g id="label" transform="translate(30.000000, 30.000000) rotate(-90.000000) translate(-30.000000, -30.000000) translate(4.000000, 4.000000)">
                <circle id="area" opacity="0.5" cx="25.9995894" cy="25.9995894" r="26"></circle>
                <path d="M2,26 C2,39.254834 12.745166,50 26,50" stroke="#FFC80A" stroke-width="3" stroke-linecap="round" stroke-linejoin="round"></path>
            </g>
            <g id="cap" transform="translate(19.000000, 19.000000)">
                <mask id="mask-3" fill="white">
                    <use xlink:href="#path-2"></use>
                </mask>
                <use fill="#FFC80A" xlink:href="#path-2"></use>
                <path d="M4.15638534,4.15638534 C4.59167101,5.02749299 4.59514043,6.09354219 4.07179677,7 C3.54845311,7.90645781 2.62349271,8.43647781 1.65144852,8.49506318 C2.46397079,9.0318217 3,9.95331268 3,11 C3,12.0466873 2.46397079,12.9681783 1.65144852,13.5049368 C2.62349271,13.5635222 3.54845311,14.0935422 4.07179677,15 C4.59514043,15.9064578 4.59167101,16.972507 4.15638534,17.8436147 C5.02749299,17.408329 6.09354219,17.4048596 7,17.9282032 C7.90645781,18.4515469 8.43647781,19.3765073 8.49506318,20.3485515 C9.0318217,19.5360292 9.95331268,19 11,19 C12.0466873,19 12.9681783,19.5360292 13.5049368,20.3485515 C13.5635222,19.3765073 14.0935422,18.4515469 15,17.9282032 C15.9064578,17.4048596 16.972507,17.408329 17.8436147,17.8436147 C17.408329,16.972507 17.4048596,15.9064578 17.9282032,15 C18.4515469,14.0935422 19.3765073,13.5635222 20.3485515,13.5049368 C19.5360292,12.9681783 19,12.0466873 19,11 C19,9.95331268 19.5360292,9.0318217 20.3485515,8.49506318 C19.3765073,8.43647781 18.4515469,7.90645781 17.9282032,7 C17.4048596,6.09354219 17.408329,5.02749299 17.8436147,4.15638534 C16.972507,4.59167101 15.9064578,4.59514043 15,4.07179677 C14.0935422,3.54845311 13.5635222,2.62349271 13.5049368,1.65144852 C12.9681783,2.46397079 12.0466873,3 11,3 C9.95331268,3 9.0318217,2.46397079 8.49506318,1.65144852 C8.43647781,2.62349271 7.90645781,3.54845311 7,4.07179677 C6.09354219,4.59514043 5.02749299,4.59167101 4.15638534,4.15638534 Z M2.81787495,2.81787495 C2.10996987,1.40854406 2.61657802,-0.325636601 4,-1.12435565 C5.38342198,-1.9230747 7.13857056,-1.49471991 8.00513437,-0.176990677 C8.09673603,-1.75145957 9.4025619,-3 11,-3 C12.5974381,-3 13.903264,-1.75145957 13.9948656,-0.176990677 C14.8614294,-1.49471991 16.616578,-1.9230747 18,-1.12435565 C19.383422,-0.325636601 19.8900301,1.40854406 19.1821251,2.81787495 C20.5914559,2.10996987 22.3256366,2.61657802 23.1243557,4 C23.9230747,5.38342198 23.4947199,7.13857056 22.1769907,8.00513437 C23.7514596,8.09673603 25,9.4025619 25,11 C25,12.5974381 23.7514596,13.903264 22.1769907,13.9948656 C23.4947199,14.8614294 23.9230747,16.616578 23.1243557,18 C22.3256366,19.383422 20.5914559,19.8900301 19.1821251,19.1821251 C19.8900301,20.5914559 19.383422,22.3256366 18,23.1243557 C16.616578,23.9230747 14.8614294,23.4947199 13.9948656,22.1769907 C13.903264,23.7514596 12.5974381,25 11,25 C9.4025619,25 8.09673603,23.7514596 8.00513437,22.1769907 C7.13857056,23.4947199 5.38342198,23.9230747 4,23.1243557 C2.61657802,22.3256366 2.10996987,20.5914559 2.81787495,19.1821251 C1.40854406,19.8900301 -0.325636601,19.383422 -1.12435565,18 C-1.9230747,16.616578 -1.49471991,14.8614294 -0.176990677,13.9948656 C-1.75145957,13.903264 -3,12.5974381 -3,11 C-3,9.4025619 -1.75145957,8.09673603 -0.176990677,8.00513437 C-1.49471991,7.13857056 -1.9230747,5.38342198 -1.12435565,4 C-0.325636601,2.61657802 1.40854406,2.10996987 2.81787495,2.81787495 Z" id="Combined-Shape" fill-opacity="0.236554574" fill="#292929" mask="url(#mask-3)"></path>
                <g id="smileymcsmileface" mask="url(#mask-3)" stroke="#FFFFFF" stroke-linecap="round" stroke-width="2">
                    <g transform="translate(7.000000, 8.000000)">
                        <path d="M2,0 L2,2" id="right-eye"></path>
                        <path d="M6,0 L6,2" id="left-eye"></path>
                        <path d="M0.185143564,4.20642083 C0.319663628,4.63218915 0.523491644,5.02716872 0.783389266,5.37812119 C1.51208318,6.36211223 2.68154825,7 4,7 C5.31845175,7 6.48791682,6.36211223 7.21661073,5.37812119 C7.47650836,5.02716872 7.68033637,4.63218915 7.81485644,4.20642083" id="dem-dirty-mouth"></path>
                    </g>
                </g>
            </g>
        </g>
    </g>
</svg>