<?xml version="1.0" encoding="UTF-8"?>
<svg width="264px" height="317px" viewBox="0 0 264 317" version="1.1" xmlns="http://www.w3.org/2000/svg" xmlns:xlink="http://www.w3.org/1999/xlink">
    <!-- Generator: Sketch 48.2 (47327) - http://www.bohemiancoding.com/sketch -->
    <title>crate</title>
    <desc>Created with Sketch.</desc>
    <defs></defs>
    <g id="assets" stroke="none" stroke-width="1" fill="none" fill-rule="evenodd" transform="translate(-96.000000, -643.000000)">
        <g id="crate" transform="translate(96.000000, 643.000000)">
            <rect id="crate-box" fill="#F05638" x="0" y="0" width="264" height="317"></rect>
            <rect id="inner-box" fill="#CE4125" x="8" y="8" width="248" height="301"></rect>
            <polygon id="inner-shadow" fill="#BF361B" points="8 8 256 8 256 309 246 289 246 28 18 28"></polygon>
            <polygon id="inner-hilight" fill="#E1492B" transform="translate(132.000000, 158.500000) scale(-1, -1) translate(-132.000000, -158.500000) " points="8 8 256 8 256 309 246 289 246 28 18 28"></polygon>
            <path d="M113.132782,12 L150.867218,12 C151.419503,12 151.867218,12.4477153 151.867218,13 C151.867218,13.041465 151.864639,13.0828899 151.859496,13.1240347 L151.109496,19.1240347 C151.046942,19.6244636 150.621541,20 150.117218,20 L113.882782,20 C113.378459,20 112.953058,19.6244636 112.890504,19.1240347 L112.140504,13.1240347 C112.072002,12.5760148 112.460728,12.0762246 113.008747,12.0077221 C113.049892,12.002579 113.091317,12 113.132782,12 Z" id="handle" fill="#F05638"></path>
            <path d="M117.219804,12 L146.780196,12 C147.332481,12 147.780196,12.4477153 147.780196,13 C147.780196,13.065852 147.773691,13.131543 147.760777,13.1961161 L147.360777,15.1961161 C147.267292,15.6635403 146.856877,16 146.380196,16 L117.619804,16 C117.143123,16 116.732708,15.6635403 116.639223,15.1961161 L116.239223,13.1961161 C116.130911,12.6545564 116.482128,12.1277313 117.023688,12.0194193 C117.088261,12.0065047 117.153952,12 117.219804,12 Z" id="handle" fill="#FFFFFF"></path>
            <path d="M113.132782,297 L150.867218,297 C151.419503,297 151.867218,297.447715 151.867218,298 C151.867218,298.041465 151.864639,298.08289 151.859496,298.124035 L151.109496,304.124035 C151.046942,304.624464 150.621541,305 150.117218,305 L113.882782,305 C113.378459,305 112.953058,304.624464 112.890504,304.124035 L112.140504,298.124035 C112.072002,297.576015 112.460728,297.076225 113.008747,297.007722 C113.049892,297.002579 113.091317,297 113.132782,297 Z" id="handle" fill="#BF361B" transform="translate(132.000000, 301.000000) scale(1, -1) translate(-132.000000, -301.000000) "></path>
            <path d="M117.219804,301 L146.780196,301 C147.332481,301 147.780196,301.447715 147.780196,302 C147.780196,302.065852 147.773691,302.131543 147.760777,302.196116 L147.360777,304.196116 C147.267292,304.66354 146.856877,305 146.380196,305 L117.619804,305 C117.143123,305 116.732708,304.66354 116.639223,304.196116 L116.239223,302.196116 C116.130911,301.654556 116.482128,301.127731 117.023688,301.019419 C117.088261,301.006505 117.153952,301 117.219804,301 Z" id="handle" fill="#FFFFFF" transform="translate(132.000000, 303.000000) scale(1, -1) translate(-132.000000, -303.000000) "></path>
            <path d="M18,68 L246,68" id="line" stroke="#AF3820" stroke-width="4" stroke-linecap="round"></path>
            <path d="M18,128 L246,128" id="line" stroke="#AF3820" stroke-width="4" stroke-linecap="round"></path>
            <path d="M18,188 L246,188" id="line" stroke="#AF3820" stroke-width="4" stroke-linecap="round"></path>
            <path d="M18,248 L246,248" id="line" stroke="#AF3820" stroke-width="4" stroke-linecap="round"></path>
            <path d="M70,28 L70,289" id="line" stroke="#AF3820" stroke-width="4" stroke-linecap="round"></path>
            <path d="M132,28 L132,289" id="line" stroke="#AF3820" stroke-width="4" stroke-linecap="round"></path>
            <path d="M194,28 L194,289" id="line" stroke="#AF3820" stroke-width="4" stroke-linecap="round"></path>
        </g>
    </g>
</svg>