<?xml version="1.0" encoding="UTF-8"?>
<svg width="30px" height="28px" viewBox="0 0 30 28" version="1.1" xmlns="http://www.w3.org/2000/svg" xmlns:xlink="http://www.w3.org/1999/xlink">
    <!-- Generator: Sketch 48.2 (47327) - http://www.bohemiancoding.com/sketch -->
    <title>heart outline</title>
    <desc>Created with Sketch.</desc>
    <defs></defs>
    <g id="assets" stroke="none" stroke-width="1" fill="none" fill-rule="evenodd" transform="translate(-167.000000, -167.000000)">
        <g id="heart-outline" transform="translate(166.000000, 165.000000)" fill="#D2D2D2">
            <path d="M26.4211011,15.6090769 C21.9001641,20.8278462 17.7821347,24.8978974 15.9999227,26.611641 C14.2187573,24.8993333 10.1042163,20.8332308 5.57874438,15.6090769 C3.75223003,13.5008205 3.29769447,10.9294872 4.33199834,8.55451282 C5.29095326,6.35184615 7.34595632,4.87179487 9.44526178,4.87179487 C13.6082913,4.87179487 14.550502,8.076 14.6467812,8.45148718 C14.8009675,9.08471795 15.3535264,9.53846154 15.9891088,9.53846154 L16.0013181,9.53846154 C16.6351562,9.53846154 17.1915524,9.08507692 17.3527154,8.45328205 C17.4458551,8.08748718 18.3842286,4.87574359 22.5549325,4.87574359 C24.6538891,4.87574359 26.7088922,6.35364103 27.668196,8.55630769 C28.702151,10.9312821 28.2479643,13.5008205 26.4211011,15.6090769 M30.2143626,7.37994872 C28.7914535,4.11184615 25.7848211,2 22.5549325,2 C19.327137,2 17.2334129,3.46102564 15.9999227,5.04374359 C14.7664325,3.46102564 12.6727085,2 9.44526178,2 C6.21537324,2 3.20874084,4.11184615 1.78548291,7.37994872 C0.303620229,10.7830256 0.943039788,14.5734359 3.4958343,17.5202564 C9.61061087,24.5791282 15.0144561,29.5835897 15.0681772,29.6331282 C15.3332938,29.8779487 15.6667827,30 15.9999227,30 C16.3334116,30 16.6665516,29.8779487 16.9316683,29.6331282 C16.9853893,29.5835897 22.3892346,24.5791282 28.5040112,17.5202564 C31.0568057,14.5734359 31.6965741,10.7830256 30.2143626,7.37994872" id="heart"></path>
        </g>
    </g>
</svg>