<?xml version="1.0" encoding="UTF-8"?>
<svg width="30px" height="28px" viewBox="0 0 30 28" version="1.1" xmlns="http://www.w3.org/2000/svg" xmlns:xlink="http://www.w3.org/1999/xlink">
    <!-- Generator: Sketch 48.2 (47327) - http://www.bohemiancoding.com/sketch -->
    <title>heart solid</title>
    <desc>Created with Sketch.</desc>
    <defs></defs>
    <g id="assets" stroke="none" stroke-width="1" fill="none" fill-rule="evenodd" transform="translate(-205.000000, -167.000000)">
        <g id="heart-solid" transform="translate(204.000000, 165.000000)" fill="#F05638">
            <path d="M22.5549325,2 C19.327137,2 17.2334129,3.46102564 15.9999227,5.04374359 C14.7664325,3.46102564 12.6727085,2 9.44526178,2 C6.21537324,2 3.20874084,4.11184615 1.78548291,7.37994872 C0.303620229,10.7830256 0.943039788,14.5734359 3.4958343,17.5202564 C9.61061087,24.5791282 15.0144561,29.5835897 15.0681772,29.6331282 C15.3332938,29.8779487 15.6667827,30 15.9999227,30 C16.3334116,30 16.6665516,29.8779487 16.9316683,29.6331282 C16.9853893,29.5835897 22.3892346,24.5791282 28.5040112,17.5202564 C31.0568057,14.5734359 31.6965741,10.7830256 30.2143626,7.37994872 C28.7914535,4.11184615 25.7848211,2 22.5549325,2 Z" id="heart"></path>
        </g>
    </g>
</svg>