<?xml version="1.0" encoding="UTF-8"?>
<svg width="452px" height="563px" viewBox="0 0 452 563" version="1.1" xmlns="http://www.w3.org/2000/svg" xmlns:xlink="http://www.w3.org/1999/xlink">
    <!-- Generator: Sketch 48.2 (47327) - http://www.bohemiancoding.com/sketch -->
    <title>illustration</title>
    <desc>Created with Sketch.</desc>
    <defs>
        <linearGradient x1="3.061617e-15%" y1="50%" x2="100%" y2="50%" id="linearGradient-1">
            <stop stop-color="#723820" offset="0%"></stop>
            <stop stop-color="#723820" offset="49.7638819%"></stop>
            <stop stop-color="#B15326" offset="50.2596223%"></stop>
            <stop stop-color="#B15326" offset="100%"></stop>
        </linearGradient>
        <path d="M116,190.621411 L116,387.482376 C116,397.711117 107.574911,406 97.1780881,406 L18.8219119,406 C8.42508871,406 0,397.711117 0,387.482376 L0,190.621411 C0,135.704056 26.1653532,138.278554 30.5266909,115.967995 C30.5525293,115.839138 30.5792586,115.710282 30.605097,115.573537 C30.605097,115.53935 30.6140068,115.513053 30.6229166,115.487632 C30.6140068,115.478867 30.6229166,115.478867 30.6229166,115.470101 C30.6407361,115.367542 30.6576647,115.25534 30.6754843,115.152781 C30.7013226,115.00727 30.728052,114.860882 30.7538903,114.706605 C30.7717099,114.611935 30.7797287,114.509376 30.7975483,114.40594 C30.8064581,114.354222 30.8153678,114.303381 30.8233866,114.242897 C30.849225,114.08862 30.8759543,113.925578 30.8928829,113.762535 C30.9454506,113.436449 30.9891086,113.092832 31.0407853,112.732561 C31.0844432,112.381054 31.1281011,112.012017 31.1806688,111.625448 C31.1984884,111.496591 31.2065072,111.367735 31.2243268,111.23099 C31.2501651,110.973277 31.2858043,110.707675 31.3116426,110.441196 C31.3205524,110.398244 31.3205524,110.355292 31.3294622,110.303574 C31.3553006,110.045862 31.3909397,109.78026 31.416778,109.505892 C31.4256878,109.419988 31.4345976,109.334084 31.4426164,109.248179 C31.4684548,109.007998 31.4862743,108.767817 31.5121127,108.536401 C31.5210225,108.484684 31.5210225,108.441731 31.5299323,108.398779 C31.5477518,108.218205 31.5646804,108.038507 31.5825,107.857933 C31.6083383,107.583566 31.6350677,107.300432 31.660906,107.017299 C31.704564,106.493984 31.7571317,105.953138 31.8007896,105.404403 C31.8186092,105.207174 31.8355377,105.001179 31.8533573,104.795184 L31.8533573,104.726811 C31.8711769,104.529582 31.8881054,104.323587 31.905925,104.117592 C31.9237446,103.929129 31.9317634,103.7319 31.9495829,103.533794 C31.9584927,103.465421 31.9584927,103.404938 31.9674025,103.336565 C31.9763123,103.268192 31.9763123,103.191054 31.9852221,103.10515 C32.0110604,102.830782 32.02888,102.547649 32.0466995,102.264515 C32.0725379,101.981382 32.0903575,101.689483 32.1161958,101.397584 L32.1161958,101.354631 C32.1251056,101.277493 32.1251056,101.200354 32.1340154,101.123216 C32.151835,100.865503 32.1687635,100.599901 32.1865831,100.342189 C32.2124215,100.050289 32.230241,99.7671561 32.2471696,99.475257 C32.2649892,99.22631 32.2819178,98.977363 32.2997373,98.728416 C32.2997373,98.6766982 32.3086471,98.6170912 32.3086471,98.5653733 C32.3264667,98.3164263 32.3433952,98.0674793 32.3612148,97.8106432 L32.3612148,97.7510361 C32.3870532,97.3653436 32.4137825,96.9700088 32.4396209,96.5755505 C32.4485307,96.4125078 32.4574404,96.2494651 32.4654592,96.0776566 C32.4912976,95.7173847 32.5091172,95.3571128 32.5349555,94.9880752 C32.5527751,94.7391282 32.5607939,94.498947 32.5786135,94.25 L58,113.394374 L58.4356883,113.068288 L83.4320783,94.2508766 C83.4668264,94.8513297 83.5015746,95.4438936 83.5372137,96.035581 C83.5630521,96.4133844 83.5808716,96.7903112 83.60671,97.1681145 C83.6414581,97.837817 83.6851161,98.4978771 83.7376838,99.1500481 C83.7902515,99.896889 83.8339094,100.634964 83.8855861,101.355508 C83.9381538,102.0331 83.9818118,102.694036 84.0334885,103.337442 C84.0423983,103.389159 84.0423983,103.448766 84.051308,103.500484 C84.0771464,103.929129 84.1127855,104.349884 84.1475337,104.77064 C84.2090112,105.542902 84.2785075,106.297632 84.339094,107.019052 C84.4522482,108.23749 84.5662934,109.387555 84.6883574,110.44295 C84.7320153,110.854939 84.7756732,111.249398 84.8193312,111.627201 C84.8718989,112.01377 84.9155568,112.382808 84.9592147,112.734314 C85.0117824,113.094586 85.0554403,113.438203 85.1071171,113.764288 C85.2202713,114.588268 85.3423353,115.326343 85.4733091,115.969748 C89.8346468,138.278554 116,135.704933 116,190.621411 Z" id="path-2"></path>
        <path d="M116,190.621411 L116,387.482376 C116,397.711117 107.574911,406 97.1780881,406 L18.8219119,406 C8.42508871,406 0,397.711117 0,387.482376 L0,190.621411 C0,135.704056 26.1653532,138.278554 30.5266909,115.967995 C30.5525293,115.839138 30.5792586,115.710282 30.605097,115.573537 C30.605097,115.53935 30.6140068,115.513053 30.6229166,115.487632 C30.6140068,115.478867 30.6229166,115.478867 30.6229166,115.470101 C30.6407361,115.367542 30.6576647,115.25534 30.6754843,115.152781 C30.7013226,115.00727 30.728052,114.860882 30.7538903,114.706605 C30.7717099,114.611935 30.7797287,114.509376 30.7975483,114.40594 C30.8064581,114.354222 30.8153678,114.303381 30.8233866,114.242897 C30.849225,114.08862 30.8759543,113.925578 30.8928829,113.762535 C30.9454506,113.436449 30.9891086,113.092832 31.0407853,112.732561 C31.0844432,112.381054 31.1281011,112.012017 31.1806688,111.625448 C31.1984884,111.496591 31.2065072,111.367735 31.2243268,111.23099 C31.2501651,110.973277 31.2858043,110.707675 31.3116426,110.441196 C31.3205524,110.398244 31.3205524,110.355292 31.3294622,110.303574 C31.3553006,110.045862 31.3909397,109.78026 31.416778,109.505892 C31.4256878,109.419988 31.4345976,109.334084 31.4426164,109.248179 C31.4684548,109.007998 31.4862743,108.767817 31.5121127,108.536401 C31.5210225,108.484684 31.5210225,108.441731 31.5299323,108.398779 C31.5477518,108.218205 31.5646804,108.038507 31.5825,107.857933 C31.6083383,107.583566 31.6350677,107.300432 31.660906,107.017299 C31.704564,106.493984 31.7571317,105.953138 31.8007896,105.404403 C31.8186092,105.207174 31.8355377,105.001179 31.8533573,104.795184 L31.8533573,104.726811 C31.8711769,104.529582 31.8881054,104.323587 31.905925,104.117592 C31.9237446,103.929129 31.9317634,103.7319 31.9495829,103.533794 C31.9584927,103.465421 31.9584927,103.404938 31.9674025,103.336565 C31.9763123,103.268192 31.9763123,103.191054 31.9852221,103.10515 C32.0110604,102.830782 32.02888,102.547649 32.0466995,102.264515 C32.0725379,101.981382 32.0903575,101.689483 32.1161958,101.397584 L32.1161958,101.354631 C32.1251056,101.277493 32.1251056,101.200354 32.1340154,101.123216 C32.151835,100.865503 32.1687635,100.599901 32.1865831,100.342189 C32.2124215,100.050289 32.230241,99.7671561 32.2471696,99.475257 C32.2649892,99.22631 32.2819178,98.977363 32.2997373,98.728416 C32.2997373,98.6766982 32.3086471,98.6170912 32.3086471,98.5653733 C32.3264667,98.3164263 32.3433952,98.0674793 32.3612148,97.8106432 L32.3612148,97.7510361 C32.3870532,97.3653436 32.4137825,96.9700088 32.4396209,96.5755505 C32.4485307,96.4125078 32.4574404,96.2494651 32.4654592,96.0776566 C32.4912976,95.7173847 32.5091172,95.3571128 32.5349555,94.9880752 C32.5527751,94.7391282 32.5607939,94.498947 32.5786135,94.25 L58,113.394374 L58.4356883,113.068288 L83.4320783,94.2508766 C83.4668264,94.8513297 83.5015746,95.4438936 83.5372137,96.035581 C83.5630521,96.4133844 83.5808716,96.7903112 83.60671,97.1681145 C83.6414581,97.837817 83.6851161,98.4978771 83.7376838,99.1500481 C83.7902515,99.896889 83.8339094,100.634964 83.8855861,101.355508 C83.9381538,102.0331 83.9818118,102.694036 84.0334885,103.337442 C84.0423983,103.389159 84.0423983,103.448766 84.051308,103.500484 C84.0771464,103.929129 84.1127855,104.349884 84.1475337,104.77064 C84.2090112,105.542902 84.2785075,106.297632 84.339094,107.019052 C84.4522482,108.23749 84.5662934,109.387555 84.6883574,110.44295 C84.7320153,110.854939 84.7756732,111.249398 84.8193312,111.627201 C84.8718989,112.01377 84.9155568,112.382808 84.9592147,112.734314 C85.0117824,113.094586 85.0554403,113.438203 85.1071171,113.764288 C85.2202713,114.588268 85.3423353,115.326343 85.4733091,115.969748 C89.8346468,138.278554 116,135.704933 116,190.621411 Z" id="path-3"></path>
        <path d="M116,190.621411 L116,387.482376 C116,397.711117 107.574911,406 97.1780881,406 L18.8219119,406 C8.42508871,406 0,397.711117 0,387.482376 L0,190.621411 C0,135.704056 26.1653532,138.278554 30.5266909,115.967995 C30.5525293,115.839138 30.5792586,115.710282 30.605097,115.573537 C30.605097,115.53935 30.6140068,115.513053 30.6229166,115.487632 C30.6140068,115.478867 30.6229166,115.478867 30.6229166,115.470101 C30.6407361,115.367542 30.6576647,115.25534 30.6754843,115.152781 C30.7013226,115.00727 30.728052,114.860882 30.7538903,114.706605 C30.7717099,114.611935 30.7797287,114.509376 30.7975483,114.40594 C30.8064581,114.354222 30.8153678,114.303381 30.8233866,114.242897 C30.849225,114.08862 30.8759543,113.925578 30.8928829,113.762535 C30.9454506,113.436449 30.9891086,113.092832 31.0407853,112.732561 C31.0844432,112.381054 31.1281011,112.012017 31.1806688,111.625448 C31.1984884,111.496591 31.2065072,111.367735 31.2243268,111.23099 C31.2501651,110.973277 31.2858043,110.707675 31.3116426,110.441196 C31.3205524,110.398244 31.3205524,110.355292 31.3294622,110.303574 C31.3553006,110.045862 31.3909397,109.78026 31.416778,109.505892 C31.4256878,109.419988 31.4345976,109.334084 31.4426164,109.248179 C31.4684548,109.007998 31.4862743,108.767817 31.5121127,108.536401 C31.5210225,108.484684 31.5210225,108.441731 31.5299323,108.398779 C31.5477518,108.218205 31.5646804,108.038507 31.5825,107.857933 C31.6083383,107.583566 31.6350677,107.300432 31.660906,107.017299 C31.704564,106.493984 31.7571317,105.953138 31.8007896,105.404403 C31.8186092,105.207174 31.8355377,105.001179 31.8533573,104.795184 L31.8533573,104.726811 C31.8711769,104.529582 31.8881054,104.323587 31.905925,104.117592 C31.9237446,103.929129 31.9317634,103.7319 31.9495829,103.533794 C31.9584927,103.465421 31.9584927,103.404938 31.9674025,103.336565 C31.9763123,103.268192 31.9763123,103.191054 31.9852221,103.10515 C32.0110604,102.830782 32.02888,102.547649 32.0466995,102.264515 C32.0725379,101.981382 32.0903575,101.689483 32.1161958,101.397584 L32.1161958,101.354631 C32.1251056,101.277493 32.1251056,101.200354 32.1340154,101.123216 C32.151835,100.865503 32.1687635,100.599901 32.1865831,100.342189 C32.2124215,100.050289 32.230241,99.7671561 32.2471696,99.475257 C32.2649892,99.22631 32.2819178,98.977363 32.2997373,98.728416 C32.2997373,98.6766982 32.3086471,98.6170912 32.3086471,98.5653733 C32.3264667,98.3164263 32.3433952,98.0674793 32.3612148,97.8106432 L32.3612148,97.7510361 C32.3870532,97.3653436 32.4137825,96.9700088 32.4396209,96.5755505 C32.4485307,96.4125078 32.4574404,96.2494651 32.4654592,96.0776566 C32.4912976,95.7173847 32.5091172,95.3571128 32.5349555,94.9880752 C32.5527751,94.7391282 32.5607939,94.498947 32.5786135,94.25 L58,113.394374 L58.4356883,113.068288 L83.4320783,94.2508766 C83.4668264,94.8513297 83.5015746,95.4438936 83.5372137,96.035581 C83.5630521,96.4133844 83.5808716,96.7903112 83.60671,97.1681145 C83.6414581,97.837817 83.6851161,98.4978771 83.7376838,99.1500481 C83.7902515,99.896889 83.8339094,100.634964 83.8855861,101.355508 C83.9381538,102.0331 83.9818118,102.694036 84.0334885,103.337442 C84.0423983,103.389159 84.0423983,103.448766 84.051308,103.500484 C84.0771464,103.929129 84.1127855,104.349884 84.1475337,104.77064 C84.2090112,105.542902 84.2785075,106.297632 84.339094,107.019052 C84.4522482,108.23749 84.5662934,109.387555 84.6883574,110.44295 C84.7320153,110.854939 84.7756732,111.249398 84.8193312,111.627201 C84.8718989,112.01377 84.9155568,112.382808 84.9592147,112.734314 C85.0117824,113.094586 85.0554403,113.438203 85.1071171,113.764288 C85.2202713,114.588268 85.3423353,115.326343 85.4733091,115.969748 C89.8346468,138.278554 116,135.704933 116,190.621411 Z" id="path-4"></path>
    </defs>
    <g id="assets" stroke="none" stroke-width="1" fill="none" fill-rule="evenodd" transform="translate(-839.000000, -82.000000)">
        <g id="illustration" transform="translate(839.000000, 111.000000)">
            <polygon id="crate" fill="#25221D" fill-rule="nonzero" points="0 66 452 66 452 494 0 494"></polygon>
            <rect id="sidewalls" fill="#FF7D6C" fill-rule="nonzero" transform="translate(4.000000, 185.000000) rotate(-180.000000) translate(-4.000000, -185.000000) " x="0" y="69" width="8" height="232"></rect>
            <rect id="sidewalls" fill="#FF7D6C" fill-rule="nonzero" transform="translate(226.000000, 70.000000) rotate(-180.000000) translate(-226.000000, -70.000000) " x="0" y="66" width="452" height="8"></rect>
            <rect id="sidewalls" fill="#FF7D6C" fill-rule="nonzero" transform="translate(448.000000, 185.000000) rotate(-180.000000) translate(-448.000000, -185.000000) " x="444" y="69" width="8" height="232"></rect>
            <g id="beer" transform="translate(28.000000, -29.000000)" fill-rule="nonzero">
                <path d="M32.63225,94.3279375 C32.63225,94.3598375 32.628625,94.3917375 32.625,94.420375 L32.628625,94.349325 C32.63225,94.317425 32.63225,94.2819 32.635875,94.25 L32.63225,94.3279375 Z" id="Shape" fill="#26241F"></path>
                <path d="M32.63225,94.25 C32.63225,94.2819 32.628625,94.3138 32.625,94.3424375 L32.628625,94.2713875 L32.63225,94.25 Z" id="Shape" fill="#26241F"></path>
                <g id="Shape">
                    <use fill="url(#linearGradient-1)" fill-rule="evenodd" xlink:href="#path-2"></use>
                    <use fill-opacity="0.32" fill="#000000" fill-rule="evenodd" xlink:href="#path-2"></use>
                </g>
                <path d="M32.628625,94.2713875 L32.63225,94.25 C32.63225,94.2819 32.628625,94.3138 32.625,94.3424375 L32.628625,94.2713875 Z" id="Shape" fill="#FFE4CC"></path>
                <path d="M80.6379896,25.375 L35.3620104,25.375 C33.850487,25.375 32.625,24.3595655 32.625,23.1071222 L32.625,10.875 L83.375,10.875 L83.375,23.1078628 C83.375,24.3603061 82.149513,25.375 80.6379896,25.375 Z" id="Shape" fill="#743922"></path>
                <path d="M83.375,9.82982543 L83.375,15.6939562 C81.9881755,16.8452166 80.7525624,18.125 78.0126119,18.125 C73.0053546,18.125 73.0053546,13.8597816 67.9980974,13.8597816 C62.9994807,13.8597816 62.9994807,18.125 57.9922234,18.125 C52.9849661,18.125 52.9849661,13.8597816 47.9854854,13.8597816 C42.9782281,13.8597816 42.9782281,18.125 37.9796115,18.125 C35.2474376,18.125 34.0040479,16.8561084 32.625,15.704848 L32.625,9.82982543 C32.625,4.40354396 36.1184152,0 40.4231876,0 L75.5759483,0 C79.8815848,0 83.375,4.40354396 83.375,9.82982543 Z" id="Shape" fill="#E7B421"></path>
                <path d="M83.375,86.0460569 L58,105.125 L32.625,86.0460569 C32.6605469,85.3182084 32.6878906,84.5823024 32.7234375,83.8463965 C33.1964844,72.6815756 33.5619792,60.8506792 33.8208333,50.7897171 C34.1954427,36.2596037 34.3558594,25.375 34.3558594,25.375 L81.6441406,25.375 C81.6441406,25.375 81.8045573,36.2596037 82.1791667,50.7897171 C82.45625,61.5158593 82.8481771,74.2411231 83.375,86.0460569 Z" id="Shape" fill="#E7B421"></path>
                <path d="M58,358.875 C31.9734398,358.875 10.875,336.126208 10.875,308.063809 L10.875,232.061191 C10.875,203.998792 31.9734398,181.25 58,181.25 C84.0265602,181.25 105.125,203.998792 105.125,232.061191 L105.125,308.063809 C105.125,336.126208 84.0265602,358.875 58,358.875 Z" id="Shape" fill="#E7B421"></path>
                <path d="M101.5,233.400572 L101.5,306.724428 C101.5,306.864137 101.5,307.004688 101.491846,307.135981 C101.468201,310.241569 101.132268,313.273936 100.518294,316.198575 C96.2963074,336.424452 78.8400469,351.625 58,351.625 C37.1599531,351.625 19.7036926,336.424452 15.4817057,316.198575 C14.8669166,313.273936 14.5317994,310.241569 14.5081537,307.135981 C14.5,307.003846 14.5,306.864137 14.5,306.724428 L14.5,233.400572 C14.5,208.643398 34.0150703,188.5 58,188.5 C81.9849297,188.5 101.5,208.643398 101.5,233.400572 Z" id="Shape" fill="#F5D9C0"></path>
                <polygon id="Rectangle-path" fill="#E7B421" points="14.5 242.875 101.5 242.875 101.5 271.875 14.5 271.875"></polygon>
                <polygon id="Rectangle-path" fill="#E7B421" points="14.5 279.125 101.5 279.125 101.5 286.375 14.5 286.375"></polygon>
                <path d="M101.5,315.375 L14.5,315.375 L14.5,308.125 L101.5,308.125 C101.475364,310.609445 102.139676,313.035313 101.5,315.375 Z" id="Shape" fill="#E7B421"></path>
                <path d="M29,96.2051071 L57.9949194,116 L87,96.2051071 C86.7317449,92.1589327 86.4929573,87.8290548 86.283637,83.375 L57.9949194,102.691313 L29.7062018,83.375 L29,96.2051071 Z" id="Shape" fill="#FFE4CC"></path>
            </g>
            <g id="beer" transform="translate(28.000000, 98.000000)" fill-rule="nonzero">
                <path d="M32.63225,94.3279375 C32.63225,94.3598375 32.628625,94.3917375 32.625,94.420375 L32.628625,94.349325 C32.63225,94.317425 32.63225,94.2819 32.635875,94.25 L32.63225,94.3279375 Z" id="Shape" fill="#26241F"></path>
                <path d="M32.63225,94.25 C32.63225,94.2819 32.628625,94.3138 32.625,94.3424375 L32.628625,94.2713875 L32.63225,94.25 Z" id="Shape" fill="#26241F"></path>
                <path d="M116,190.621411 L116,387.482376 C116,397.711117 107.574911,406 97.1780881,406 L18.8219119,406 C8.42508871,406 0,397.711117 0,387.482376 L0,190.621411 C0,135.704056 26.1653532,138.278554 30.5266909,115.967995 C30.5525293,115.839138 30.5792586,115.710282 30.605097,115.573537 C30.605097,115.53935 30.6140068,115.513053 30.6229166,115.487632 C30.6140068,115.478867 30.6229166,115.478867 30.6229166,115.470101 C30.6407361,115.367542 30.6576647,115.25534 30.6754843,115.152781 C30.7013226,115.00727 30.728052,114.860882 30.7538903,114.706605 C30.7717099,114.611935 30.7797287,114.509376 30.7975483,114.40594 C30.8064581,114.354222 30.8153678,114.303381 30.8233866,114.242897 C30.849225,114.08862 30.8759543,113.925578 30.8928829,113.762535 C30.9454506,113.436449 30.9891086,113.092832 31.0407853,112.732561 C31.0844432,112.381054 31.1281011,112.012017 31.1806688,111.625448 C31.1984884,111.496591 31.2065072,111.367735 31.2243268,111.23099 C31.2501651,110.973277 31.2858043,110.707675 31.3116426,110.441196 C31.3205524,110.398244 31.3205524,110.355292 31.3294622,110.303574 C31.3553006,110.045862 31.3909397,109.78026 31.416778,109.505892 C31.4256878,109.419988 31.4345976,109.334084 31.4426164,109.248179 C31.4684548,109.007998 31.4862743,108.767817 31.5121127,108.536401 C31.5210225,108.484684 31.5210225,108.441731 31.5299323,108.398779 C31.5477518,108.218205 31.5646804,108.038507 31.5825,107.857933 C31.6083383,107.583566 31.6350677,107.300432 31.660906,107.017299 C31.704564,106.493984 31.7571317,105.953138 31.8007896,105.404403 C31.8186092,105.207174 31.8355377,105.001179 31.8533573,104.795184 L31.8533573,104.726811 C31.8711769,104.529582 31.8881054,104.323587 31.905925,104.117592 C31.9237446,103.929129 31.9317634,103.7319 31.9495829,103.533794 C31.9584927,103.465421 31.9584927,103.404938 31.9674025,103.336565 C31.9763123,103.268192 31.9763123,103.191054 31.9852221,103.10515 C32.0110604,102.830782 32.02888,102.547649 32.0466995,102.264515 C32.0725379,101.981382 32.0903575,101.689483 32.1161958,101.397584 L32.1161958,101.354631 C32.1251056,101.277493 32.1251056,101.200354 32.1340154,101.123216 C32.151835,100.865503 32.1687635,100.599901 32.1865831,100.342189 C32.2124215,100.050289 32.230241,99.7671561 32.2471696,99.475257 C32.2649892,99.22631 32.2819178,98.977363 32.2997373,98.728416 C32.2997373,98.6766982 32.3086471,98.6170912 32.3086471,98.5653733 C32.3264667,98.3164263 32.3433952,98.0674793 32.3612148,97.8106432 L32.3612148,97.7510361 C32.3870532,97.3653436 32.4137825,96.9700088 32.4396209,96.5755505 C32.4485307,96.4125078 32.4574404,96.2494651 32.4654592,96.0776566 C32.4912976,95.7173847 32.5091172,95.3571128 32.5349555,94.9880752 C32.5527751,94.7391282 32.5607939,94.498947 32.5786135,94.25 L58,113.394374 L58.4356883,113.068288 L83.4320783,94.2508766 C83.4668264,94.8513297 83.5015746,95.4438936 83.5372137,96.035581 C83.5630521,96.4133844 83.5808716,96.7903112 83.60671,97.1681145 C83.6414581,97.837817 83.6851161,98.4978771 83.7376838,99.1500481 C83.7902515,99.896889 83.8339094,100.634964 83.8855861,101.355508 C83.9381538,102.0331 83.9818118,102.694036 84.0334885,103.337442 C84.0423983,103.389159 84.0423983,103.448766 84.051308,103.500484 C84.0771464,103.929129 84.1127855,104.349884 84.1475337,104.77064 C84.2090112,105.542902 84.2785075,106.297632 84.339094,107.019052 C84.4522482,108.23749 84.5662934,109.387555 84.6883574,110.44295 C84.7320153,110.854939 84.7756732,111.249398 84.8193312,111.627201 C84.8718989,112.01377 84.9155568,112.382808 84.9592147,112.734314 C85.0117824,113.094586 85.0554403,113.438203 85.1071171,113.764288 C85.2202713,114.588268 85.3423353,115.326343 85.4733091,115.969748 C89.8346468,138.278554 116,135.704933 116,190.621411 Z" id="Shape" fill="url(#linearGradient-1)"></path>
                <path d="M32.628625,94.2713875 L32.63225,94.25 C32.63225,94.2819 32.628625,94.3138 32.625,94.3424375 L32.628625,94.2713875 Z" id="Shape" fill="#FFE4CC"></path>
                <path d="M80.6379896,25.375 L35.3620104,25.375 C33.850487,25.375 32.625,24.3595655 32.625,23.1071222 L32.625,10.875 L83.375,10.875 L83.375,23.1078628 C83.375,24.3603061 82.149513,25.375 80.6379896,25.375 Z" id="Shape" fill="#743922"></path>
                <path d="M83.375,9.82982543 L83.375,15.6939562 C81.9881755,16.8452166 80.7525624,18.125 78.0126119,18.125 C73.0053546,18.125 73.0053546,13.8597816 67.9980974,13.8597816 C62.9994807,13.8597816 62.9994807,18.125 57.9922234,18.125 C52.9849661,18.125 52.9849661,13.8597816 47.9854854,13.8597816 C42.9782281,13.8597816 42.9782281,18.125 37.9796115,18.125 C35.2474376,18.125 34.0040479,16.8561084 32.625,15.704848 L32.625,9.82982543 C32.625,4.40354396 36.1184152,0 40.4231876,0 L75.5759483,0 C79.8815848,0 83.375,4.40354396 83.375,9.82982543 Z" id="Shape" fill="#F2CD30"></path>
                <path d="M83.375,86.0460569 L58,105.125 L32.625,86.0460569 C32.6605469,85.3182084 32.6878906,84.5823024 32.7234375,83.8463965 C33.1964844,72.6815756 33.5619792,60.8506792 33.8208333,50.7897171 C34.1954427,36.2596037 34.3558594,25.375 34.3558594,25.375 L81.6441406,25.375 C81.6441406,25.375 81.8045573,36.2596037 82.1791667,50.7897171 C82.45625,61.5158593 82.8481771,74.2411231 83.375,86.0460569 Z" id="Shape" fill="#F2CD30"></path>
                <path d="M58,358.875 C31.9734398,358.875 10.875,336.126208 10.875,308.063809 L10.875,232.061191 C10.875,203.998792 31.9734398,181.25 58,181.25 C84.0265602,181.25 105.125,203.998792 105.125,232.061191 L105.125,308.063809 C105.125,336.126208 84.0265602,358.875 58,358.875 Z" id="Shape" fill="#F2CD30"></path>
                <path d="M101.5,233.400572 L101.5,306.724428 C101.5,306.864137 101.5,307.004688 101.491846,307.135981 C101.468201,310.241569 101.132268,313.273936 100.518294,316.198575 C96.2963074,336.424452 78.8400469,351.625 58,351.625 C37.1599531,351.625 19.7036926,336.424452 15.4817057,316.198575 C14.8669166,313.273936 14.5317994,310.241569 14.5081537,307.135981 C14.5,307.003846 14.5,306.864137 14.5,306.724428 L14.5,233.400572 C14.5,208.643398 34.0150703,188.5 58,188.5 C81.9849297,188.5 101.5,208.643398 101.5,233.400572 Z" id="Shape" fill="#FFE4CC"></path>
                <polygon id="Rectangle-path" fill="#F2CD30" points="14.5 242.875 101.5 242.875 101.5 271.875 14.5 271.875"></polygon>
                <polygon id="Rectangle-path" fill="#F2CD30" points="14.5 279.125 101.5 279.125 101.5 286.375 14.5 286.375"></polygon>
                <path d="M101.5,315.375 L14.5,315.375 L14.5,308.125 L101.5,308.125 C101.475364,310.609445 102.139676,313.035313 101.5,315.375 Z" id="Shape" fill="#F2CD30"></path>
                <path d="M29,96.2051071 L57.9949194,116 L87,96.2051071 C86.7317449,92.1589327 86.4929573,87.8290548 86.283637,83.375 L57.9949194,102.691313 L29.7062018,83.375 L29,96.2051071 Z" id="Shape" fill="#FFE4CC"></path>
            </g>
            <g id="beer" transform="translate(165.000000, -29.000000)" fill-rule="nonzero">
                <path d="M32.63225,94.3279375 C32.63225,94.3598375 32.628625,94.3917375 32.625,94.420375 L32.628625,94.349325 C32.63225,94.317425 32.63225,94.2819 32.635875,94.25 L32.63225,94.3279375 Z" id="Shape" fill="#26241F"></path>
                <path d="M32.63225,94.25 C32.63225,94.2819 32.628625,94.3138 32.625,94.3424375 L32.628625,94.2713875 L32.63225,94.25 Z" id="Shape" fill="#26241F"></path>
                <g id="Shape">
                    <use fill="url(#linearGradient-1)" fill-rule="evenodd" xlink:href="#path-3"></use>
                    <use fill-opacity="0.32" fill="#000000" fill-rule="evenodd" xlink:href="#path-3"></use>
                </g>
                <path d="M32.628625,94.2713875 L32.63225,94.25 C32.63225,94.2819 32.628625,94.3138 32.625,94.3424375 L32.628625,94.2713875 Z" id="Shape" fill="#FFE4CC"></path>
                <path d="M80.6379896,25.375 L35.3620104,25.375 C33.850487,25.375 32.625,24.3595655 32.625,23.1071222 L32.625,10.875 L83.375,10.875 L83.375,23.1078628 C83.375,24.3603061 82.149513,25.375 80.6379896,25.375 Z" id="Shape" fill="#743922"></path>
                <path d="M83.375,9.82982543 L83.375,15.6939562 C81.9881755,16.8452166 80.7525624,18.125 78.0126119,18.125 C73.0053546,18.125 73.0053546,13.8597816 67.9980974,13.8597816 C62.9994807,13.8597816 62.9994807,18.125 57.9922234,18.125 C52.9849661,18.125 52.9849661,13.8597816 47.9854854,13.8597816 C42.9782281,13.8597816 42.9782281,18.125 37.9796115,18.125 C35.2474376,18.125 34.0040479,16.8561084 32.625,15.704848 L32.625,9.82982543 C32.625,4.40354396 36.1184152,0 40.4231876,0 L75.5759483,0 C79.8815848,0 83.375,4.40354396 83.375,9.82982543 Z" id="Shape" fill="#E7B421"></path>
                <path d="M83.375,86.0460569 L58,105.125 L32.625,86.0460569 C32.6605469,85.3182084 32.6878906,84.5823024 32.7234375,83.8463965 C33.1964844,72.6815756 33.5619792,60.8506792 33.8208333,50.7897171 C34.1954427,36.2596037 34.3558594,25.375 34.3558594,25.375 L81.6441406,25.375 C81.6441406,25.375 81.8045573,36.2596037 82.1791667,50.7897171 C82.45625,61.5158593 82.8481771,74.2411231 83.375,86.0460569 Z" id="Shape" fill="#E7B421"></path>
                <path d="M58,358.875 C31.9734398,358.875 10.875,336.126208 10.875,308.063809 L10.875,232.061191 C10.875,203.998792 31.9734398,181.25 58,181.25 C84.0265602,181.25 105.125,203.998792 105.125,232.061191 L105.125,308.063809 C105.125,336.126208 84.0265602,358.875 58,358.875 Z" id="Shape" fill="#E7B421"></path>
                <path d="M101.5,233.400572 L101.5,306.724428 C101.5,306.864137 101.5,307.004688 101.491846,307.135981 C101.468201,310.241569 101.132268,313.273936 100.518294,316.198575 C96.2963074,336.424452 78.8400469,351.625 58,351.625 C37.1599531,351.625 19.7036926,336.424452 15.4817057,316.198575 C14.8669166,313.273936 14.5317994,310.241569 14.5081537,307.135981 C14.5,307.003846 14.5,306.864137 14.5,306.724428 L14.5,233.400572 C14.5,208.643398 34.0150703,188.5 58,188.5 C81.9849297,188.5 101.5,208.643398 101.5,233.400572 Z" id="Shape" fill="#F5D9C0"></path>
                <polygon id="Rectangle-path" fill="#E7B421" points="14.5 242.875 101.5 242.875 101.5 271.875 14.5 271.875"></polygon>
                <polygon id="Rectangle-path" fill="#E7B421" points="14.5 279.125 101.5 279.125 101.5 286.375 14.5 286.375"></polygon>
                <path d="M101.5,315.375 L14.5,315.375 L14.5,308.125 L101.5,308.125 C101.475364,310.609445 102.139676,313.035313 101.5,315.375 Z" id="Shape" fill="#E7B421"></path>
                <path d="M29,96.2051071 L57.9949194,116 L87,96.2051071 C86.7317449,92.1589327 86.4929573,87.8290548 86.283637,83.375 L57.9949194,102.691313 L29.7062018,83.375 L29,96.2051071 Z" id="Shape" fill="#FFE4CC"></path>
            </g>
            <g id="beer" transform="translate(165.000000, 98.000000)" fill-rule="nonzero">
                <path d="M32.63225,94.3279375 C32.63225,94.3598375 32.628625,94.3917375 32.625,94.420375 L32.628625,94.349325 C32.63225,94.317425 32.63225,94.2819 32.635875,94.25 L32.63225,94.3279375 Z" id="Shape" fill="#26241F"></path>
                <path d="M32.63225,94.25 C32.63225,94.2819 32.628625,94.3138 32.625,94.3424375 L32.628625,94.2713875 L32.63225,94.25 Z" id="Shape" fill="#26241F"></path>
                <path d="M116,190.621411 L116,387.482376 C116,397.711117 107.574911,406 97.1780881,406 L18.8219119,406 C8.42508871,406 0,397.711117 0,387.482376 L0,190.621411 C0,135.704056 26.1653532,138.278554 30.5266909,115.967995 C30.5525293,115.839138 30.5792586,115.710282 30.605097,115.573537 C30.605097,115.53935 30.6140068,115.513053 30.6229166,115.487632 C30.6140068,115.478867 30.6229166,115.478867 30.6229166,115.470101 C30.6407361,115.367542 30.6576647,115.25534 30.6754843,115.152781 C30.7013226,115.00727 30.728052,114.860882 30.7538903,114.706605 C30.7717099,114.611935 30.7797287,114.509376 30.7975483,114.40594 C30.8064581,114.354222 30.8153678,114.303381 30.8233866,114.242897 C30.849225,114.08862 30.8759543,113.925578 30.8928829,113.762535 C30.9454506,113.436449 30.9891086,113.092832 31.0407853,112.732561 C31.0844432,112.381054 31.1281011,112.012017 31.1806688,111.625448 C31.1984884,111.496591 31.2065072,111.367735 31.2243268,111.23099 C31.2501651,110.973277 31.2858043,110.707675 31.3116426,110.441196 C31.3205524,110.398244 31.3205524,110.355292 31.3294622,110.303574 C31.3553006,110.045862 31.3909397,109.78026 31.416778,109.505892 C31.4256878,109.419988 31.4345976,109.334084 31.4426164,109.248179 C31.4684548,109.007998 31.4862743,108.767817 31.5121127,108.536401 C31.5210225,108.484684 31.5210225,108.441731 31.5299323,108.398779 C31.5477518,108.218205 31.5646804,108.038507 31.5825,107.857933 C31.6083383,107.583566 31.6350677,107.300432 31.660906,107.017299 C31.704564,106.493984 31.7571317,105.953138 31.8007896,105.404403 C31.8186092,105.207174 31.8355377,105.001179 31.8533573,104.795184 L31.8533573,104.726811 C31.8711769,104.529582 31.8881054,104.323587 31.905925,104.117592 C31.9237446,103.929129 31.9317634,103.7319 31.9495829,103.533794 C31.9584927,103.465421 31.9584927,103.404938 31.9674025,103.336565 C31.9763123,103.268192 31.9763123,103.191054 31.9852221,103.10515 C32.0110604,102.830782 32.02888,102.547649 32.0466995,102.264515 C32.0725379,101.981382 32.0903575,101.689483 32.1161958,101.397584 L32.1161958,101.354631 C32.1251056,101.277493 32.1251056,101.200354 32.1340154,101.123216 C32.151835,100.865503 32.1687635,100.599901 32.1865831,100.342189 C32.2124215,100.050289 32.230241,99.7671561 32.2471696,99.475257 C32.2649892,99.22631 32.2819178,98.977363 32.2997373,98.728416 C32.2997373,98.6766982 32.3086471,98.6170912 32.3086471,98.5653733 C32.3264667,98.3164263 32.3433952,98.0674793 32.3612148,97.8106432 L32.3612148,97.7510361 C32.3870532,97.3653436 32.4137825,96.9700088 32.4396209,96.5755505 C32.4485307,96.4125078 32.4574404,96.2494651 32.4654592,96.0776566 C32.4912976,95.7173847 32.5091172,95.3571128 32.5349555,94.9880752 C32.5527751,94.7391282 32.5607939,94.498947 32.5786135,94.25 L58,113.394374 L58.4356883,113.068288 L83.4320783,94.2508766 C83.4668264,94.8513297 83.5015746,95.4438936 83.5372137,96.035581 C83.5630521,96.4133844 83.5808716,96.7903112 83.60671,97.1681145 C83.6414581,97.837817 83.6851161,98.4978771 83.7376838,99.1500481 C83.7902515,99.896889 83.8339094,100.634964 83.8855861,101.355508 C83.9381538,102.0331 83.9818118,102.694036 84.0334885,103.337442 C84.0423983,103.389159 84.0423983,103.448766 84.051308,103.500484 C84.0771464,103.929129 84.1127855,104.349884 84.1475337,104.77064 C84.2090112,105.542902 84.2785075,106.297632 84.339094,107.019052 C84.4522482,108.23749 84.5662934,109.387555 84.6883574,110.44295 C84.7320153,110.854939 84.7756732,111.249398 84.8193312,111.627201 C84.8718989,112.01377 84.9155568,112.382808 84.9592147,112.734314 C85.0117824,113.094586 85.0554403,113.438203 85.1071171,113.764288 C85.2202713,114.588268 85.3423353,115.326343 85.4733091,115.969748 C89.8346468,138.278554 116,135.704933 116,190.621411 Z" id="Shape" fill="url(#linearGradient-1)"></path>
                <path d="M32.628625,94.2713875 L32.63225,94.25 C32.63225,94.2819 32.628625,94.3138 32.625,94.3424375 L32.628625,94.2713875 Z" id="Shape" fill="#FFE4CC"></path>
                <path d="M80.6379896,25.375 L35.3620104,25.375 C33.850487,25.375 32.625,24.3595655 32.625,23.1071222 L32.625,10.875 L83.375,10.875 L83.375,23.1078628 C83.375,24.3603061 82.149513,25.375 80.6379896,25.375 Z" id="Shape" fill="#743922"></path>
                <path d="M83.375,9.82982543 L83.375,15.6939562 C81.9881755,16.8452166 80.7525624,18.125 78.0126119,18.125 C73.0053546,18.125 73.0053546,13.8597816 67.9980974,13.8597816 C62.9994807,13.8597816 62.9994807,18.125 57.9922234,18.125 C52.9849661,18.125 52.9849661,13.8597816 47.9854854,13.8597816 C42.9782281,13.8597816 42.9782281,18.125 37.9796115,18.125 C35.2474376,18.125 34.0040479,16.8561084 32.625,15.704848 L32.625,9.82982543 C32.625,4.40354396 36.1184152,0 40.4231876,0 L75.5759483,0 C79.8815848,0 83.375,4.40354396 83.375,9.82982543 Z" id="Shape" fill="#F2CD30"></path>
                <path d="M83.375,86.0460569 L58,105.125 L32.625,86.0460569 C32.6605469,85.3182084 32.6878906,84.5823024 32.7234375,83.8463965 C33.1964844,72.6815756 33.5619792,60.8506792 33.8208333,50.7897171 C34.1954427,36.2596037 34.3558594,25.375 34.3558594,25.375 L81.6441406,25.375 C81.6441406,25.375 81.8045573,36.2596037 82.1791667,50.7897171 C82.45625,61.5158593 82.8481771,74.2411231 83.375,86.0460569 Z" id="Shape" fill="#F2CD30"></path>
                <path d="M58,358.875 C31.9734398,358.875 10.875,336.126208 10.875,308.063809 L10.875,232.061191 C10.875,203.998792 31.9734398,181.25 58,181.25 C84.0265602,181.25 105.125,203.998792 105.125,232.061191 L105.125,308.063809 C105.125,336.126208 84.0265602,358.875 58,358.875 Z" id="Shape" fill="#F2CD30"></path>
                <path d="M101.5,233.400572 L101.5,306.724428 C101.5,306.864137 101.5,307.004688 101.491846,307.135981 C101.468201,310.241569 101.132268,313.273936 100.518294,316.198575 C96.2963074,336.424452 78.8400469,351.625 58,351.625 C37.1599531,351.625 19.7036926,336.424452 15.4817057,316.198575 C14.8669166,313.273936 14.5317994,310.241569 14.5081537,307.135981 C14.5,307.003846 14.5,306.864137 14.5,306.724428 L14.5,233.400572 C14.5,208.643398 34.0150703,188.5 58,188.5 C81.9849297,188.5 101.5,208.643398 101.5,233.400572 Z" id="Shape" fill="#FFE4CC"></path>
                <polygon id="Rectangle-path" fill="#F2CD30" points="14.5 242.875 101.5 242.875 101.5 271.875 14.5 271.875"></polygon>
                <polygon id="Rectangle-path" fill="#F2CD30" points="14.5 279.125 101.5 279.125 101.5 286.375 14.5 286.375"></polygon>
                <path d="M101.5,315.375 L14.5,315.375 L14.5,308.125 L101.5,308.125 C101.475364,310.609445 102.139676,313.035313 101.5,315.375 Z" id="Shape" fill="#F2CD30"></path>
                <path d="M29,96.2051071 L57.9949194,116 L87,96.2051071 C86.7317449,92.1589327 86.4929573,87.8290548 86.283637,83.375 L57.9949194,102.691313 L29.7062018,83.375 L29,96.2051071 Z" id="Shape" fill="#FFE4CC"></path>
            </g>
            <g id="beer" transform="translate(308.000000, -29.000000)" fill-rule="nonzero">
                <path d="M32.63225,94.3279375 C32.63225,94.3598375 32.628625,94.3917375 32.625,94.420375 L32.628625,94.349325 C32.63225,94.317425 32.63225,94.2819 32.635875,94.25 L32.63225,94.3279375 Z" id="Shape" fill="#26241F"></path>
                <path d="M32.63225,94.25 C32.63225,94.2819 32.628625,94.3138 32.625,94.3424375 L32.628625,94.2713875 L32.63225,94.25 Z" id="Shape" fill="#26241F"></path>
                <g id="Shape">
                    <use fill="url(#linearGradient-1)" fill-rule="evenodd" xlink:href="#path-4"></use>
                    <use fill-opacity="0.32" fill="#000000" fill-rule="evenodd" xlink:href="#path-4"></use>
                </g>
                <path d="M32.628625,94.2713875 L32.63225,94.25 C32.63225,94.2819 32.628625,94.3138 32.625,94.3424375 L32.628625,94.2713875 Z" id="Shape" fill="#FFE4CC"></path>
                <path d="M80.6379896,25.375 L35.3620104,25.375 C33.850487,25.375 32.625,24.3595655 32.625,23.1071222 L32.625,10.875 L83.375,10.875 L83.375,23.1078628 C83.375,24.3603061 82.149513,25.375 80.6379896,25.375 Z" id="Shape" fill="#743922"></path>
                <path d="M83.375,9.82982543 L83.375,15.6939562 C81.9881755,16.8452166 80.7525624,18.125 78.0126119,18.125 C73.0053546,18.125 73.0053546,13.8597816 67.9980974,13.8597816 C62.9994807,13.8597816 62.9994807,18.125 57.9922234,18.125 C52.9849661,18.125 52.9849661,13.8597816 47.9854854,13.8597816 C42.9782281,13.8597816 42.9782281,18.125 37.9796115,18.125 C35.2474376,18.125 34.0040479,16.8561084 32.625,15.704848 L32.625,9.82982543 C32.625,4.40354396 36.1184152,0 40.4231876,0 L75.5759483,0 C79.8815848,0 83.375,4.40354396 83.375,9.82982543 Z" id="Shape" fill="#E7B421"></path>
                <path d="M83.375,86.0460569 L58,105.125 L32.625,86.0460569 C32.6605469,85.3182084 32.6878906,84.5823024 32.7234375,83.8463965 C33.1964844,72.6815756 33.5619792,60.8506792 33.8208333,50.7897171 C34.1954427,36.2596037 34.3558594,25.375 34.3558594,25.375 L81.6441406,25.375 C81.6441406,25.375 81.8045573,36.2596037 82.1791667,50.7897171 C82.45625,61.5158593 82.8481771,74.2411231 83.375,86.0460569 Z" id="Shape" fill="#E7B421"></path>
                <path d="M58,358.875 C31.9734398,358.875 10.875,336.126208 10.875,308.063809 L10.875,232.061191 C10.875,203.998792 31.9734398,181.25 58,181.25 C84.0265602,181.25 105.125,203.998792 105.125,232.061191 L105.125,308.063809 C105.125,336.126208 84.0265602,358.875 58,358.875 Z" id="Shape" fill="#E7B421"></path>
                <path d="M101.5,233.400572 L101.5,306.724428 C101.5,306.864137 101.5,307.004688 101.491846,307.135981 C101.468201,310.241569 101.132268,313.273936 100.518294,316.198575 C96.2963074,336.424452 78.8400469,351.625 58,351.625 C37.1599531,351.625 19.7036926,336.424452 15.4817057,316.198575 C14.8669166,313.273936 14.5317994,310.241569 14.5081537,307.135981 C14.5,307.003846 14.5,306.864137 14.5,306.724428 L14.5,233.400572 C14.5,208.643398 34.0150703,188.5 58,188.5 C81.9849297,188.5 101.5,208.643398 101.5,233.400572 Z" id="Shape" fill="#F5D9C0"></path>
                <polygon id="Rectangle-path" fill="#E7B421" points="14.5 242.875 101.5 242.875 101.5 271.875 14.5 271.875"></polygon>
                <polygon id="Rectangle-path" fill="#E7B421" points="14.5 279.125 101.5 279.125 101.5 286.375 14.5 286.375"></polygon>
                <path d="M101.5,315.375 L14.5,315.375 L14.5,308.125 L101.5,308.125 C101.475364,310.609445 102.139676,313.035313 101.5,315.375 Z" id="Shape" fill="#E7B421"></path>
                <path d="M29,96.2051071 L57.9949194,116 L87,96.2051071 C86.7317449,92.1589327 86.4929573,87.8290548 86.283637,83.375 L57.9949194,102.691313 L29.7062018,83.375 L29,96.2051071 Z" id="Shape" fill="#FFE4CC"></path>
            </g>
            <g id="beer" transform="translate(366.000000, 291.000000) rotate(5.000000) translate(-366.000000, -291.000000) translate(308.000000, 88.000000)" fill-rule="nonzero">
                <path d="M32.63225,94.3279375 C32.63225,94.3598375 32.628625,94.3917375 32.625,94.420375 L32.628625,94.349325 C32.63225,94.317425 32.63225,94.2819 32.635875,94.25 L32.63225,94.3279375 Z" id="Shape" fill="#26241F"></path>
                <path d="M32.63225,94.25 C32.63225,94.2819 32.628625,94.3138 32.625,94.3424375 L32.628625,94.2713875 L32.63225,94.25 Z" id="Shape" fill="#26241F"></path>
                <path d="M116,190.621411 L116,387.482376 C116,397.711117 107.574911,406 97.1780881,406 L18.8219119,406 C8.42508871,406 0,397.711117 0,387.482376 L0,190.621411 C0,135.704056 26.1653532,138.278554 30.5266909,115.967995 C30.5525293,115.839138 30.5792586,115.710282 30.605097,115.573537 C30.605097,115.53935 30.6140068,115.513053 30.6229166,115.487632 C30.6140068,115.478867 30.6229166,115.478867 30.6229166,115.470101 C30.6407361,115.367542 30.6576647,115.25534 30.6754843,115.152781 C30.7013226,115.00727 30.728052,114.860882 30.7538903,114.706605 C30.7717099,114.611935 30.7797287,114.509376 30.7975483,114.40594 C30.8064581,114.354222 30.8153678,114.303381 30.8233866,114.242897 C30.849225,114.08862 30.8759543,113.925578 30.8928829,113.762535 C30.9454506,113.436449 30.9891086,113.092832 31.0407853,112.732561 C31.0844432,112.381054 31.1281011,112.012017 31.1806688,111.625448 C31.1984884,111.496591 31.2065072,111.367735 31.2243268,111.23099 C31.2501651,110.973277 31.2858043,110.707675 31.3116426,110.441196 C31.3205524,110.398244 31.3205524,110.355292 31.3294622,110.303574 C31.3553006,110.045862 31.3909397,109.78026 31.416778,109.505892 C31.4256878,109.419988 31.4345976,109.334084 31.4426164,109.248179 C31.4684548,109.007998 31.4862743,108.767817 31.5121127,108.536401 C31.5210225,108.484684 31.5210225,108.441731 31.5299323,108.398779 C31.5477518,108.218205 31.5646804,108.038507 31.5825,107.857933 C31.6083383,107.583566 31.6350677,107.300432 31.660906,107.017299 C31.704564,106.493984 31.7571317,105.953138 31.8007896,105.404403 C31.8186092,105.207174 31.8355377,105.001179 31.8533573,104.795184 L31.8533573,104.726811 C31.8711769,104.529582 31.8881054,104.323587 31.905925,104.117592 C31.9237446,103.929129 31.9317634,103.7319 31.9495829,103.533794 C31.9584927,103.465421 31.9584927,103.404938 31.9674025,103.336565 C31.9763123,103.268192 31.9763123,103.191054 31.9852221,103.10515 C32.0110604,102.830782 32.02888,102.547649 32.0466995,102.264515 C32.0725379,101.981382 32.0903575,101.689483 32.1161958,101.397584 L32.1161958,101.354631 C32.1251056,101.277493 32.1251056,101.200354 32.1340154,101.123216 C32.151835,100.865503 32.1687635,100.599901 32.1865831,100.342189 C32.2124215,100.050289 32.230241,99.7671561 32.2471696,99.475257 C32.2649892,99.22631 32.2819178,98.977363 32.2997373,98.728416 C32.2997373,98.6766982 32.3086471,98.6170912 32.3086471,98.5653733 C32.3264667,98.3164263 32.3433952,98.0674793 32.3612148,97.8106432 L32.3612148,97.7510361 C32.3870532,97.3653436 32.4137825,96.9700088 32.4396209,96.5755505 C32.4485307,96.4125078 32.4574404,96.2494651 32.4654592,96.0776566 C32.4912976,95.7173847 32.5091172,95.3571128 32.5349555,94.9880752 C32.5527751,94.7391282 32.5607939,94.498947 32.5786135,94.25 L58,113.394374 L58.4356883,113.068288 L83.4320783,94.2508766 C83.4668264,94.8513297 83.5015746,95.4438936 83.5372137,96.035581 C83.5630521,96.4133844 83.5808716,96.7903112 83.60671,97.1681145 C83.6414581,97.837817 83.6851161,98.4978771 83.7376838,99.1500481 C83.7902515,99.896889 83.8339094,100.634964 83.8855861,101.355508 C83.9381538,102.0331 83.9818118,102.694036 84.0334885,103.337442 C84.0423983,103.389159 84.0423983,103.448766 84.051308,103.500484 C84.0771464,103.929129 84.1127855,104.349884 84.1475337,104.77064 C84.2090112,105.542902 84.2785075,106.297632 84.339094,107.019052 C84.4522482,108.23749 84.5662934,109.387555 84.6883574,110.44295 C84.7320153,110.854939 84.7756732,111.249398 84.8193312,111.627201 C84.8718989,112.01377 84.9155568,112.382808 84.9592147,112.734314 C85.0117824,113.094586 85.0554403,113.438203 85.1071171,113.764288 C85.2202713,114.588268 85.3423353,115.326343 85.4733091,115.969748 C89.8346468,138.278554 116,135.704933 116,190.621411 Z" id="Shape" fill="url(#linearGradient-1)"></path>
                <path d="M32.628625,94.2713875 L32.63225,94.25 C32.63225,94.2819 32.628625,94.3138 32.625,94.3424375 L32.628625,94.2713875 Z" id="Shape" fill="#FFE4CC"></path>
                <path d="M80.6379896,25.375 L35.3620104,25.375 C33.850487,25.375 32.625,24.3595655 32.625,23.1071222 L32.625,12.875 C32.625,11.7704305 33.5204305,10.875 34.625,10.875 L81.375,10.875 C82.4795695,10.875 83.375,11.7704305 83.375,12.875 L83.375,23.1078628 C83.375,24.3603061 82.149513,25.375 80.6379896,25.375 Z" id="Shape" fill="#743922"></path>
                <path d="M83.375,86.0460569 L58,105.125 L32.625,86.0460569 C32.6605469,85.3182084 32.6878906,84.5823024 32.7234375,83.8463965 C33.1964844,72.6815756 33.5619792,60.8506792 33.8208333,50.7897171 C34.1954427,36.2596037 34.3558594,25.375 34.3558594,25.375 L81.6441406,25.375 C81.6441406,25.375 81.8045573,36.2596037 82.1791667,50.7897171 C82.45625,61.5158593 82.8481771,74.2411231 83.375,86.0460569 Z" id="Shape" fill="#F2CD30"></path>
                <path d="M58,358.875 C31.9734398,358.875 10.875,336.126208 10.875,308.063809 L10.875,232.061191 C10.875,203.998792 31.9734398,181.25 58,181.25 C84.0265602,181.25 105.125,203.998792 105.125,232.061191 L105.125,308.063809 C105.125,336.126208 84.0265602,358.875 58,358.875 Z" id="Shape" fill="#F2CD30"></path>
                <path d="M101.5,233.400572 L101.5,306.724428 C101.5,306.864137 101.5,307.004688 101.491846,307.135981 C101.468201,310.241569 101.132268,313.273936 100.518294,316.198575 C96.2963074,336.424452 78.8400469,351.625 58,351.625 C37.1599531,351.625 19.7036926,336.424452 15.4817057,316.198575 C14.8669166,313.273936 14.5317994,310.241569 14.5081537,307.135981 C14.5,307.003846 14.5,306.864137 14.5,306.724428 L14.5,233.400572 C14.5,208.643398 34.0150703,188.5 58,188.5 C81.9849297,188.5 101.5,208.643398 101.5,233.400572 Z" id="Shape" fill="#FFE4CC"></path>
                <polygon id="Rectangle-path" fill="#F2CD30" points="14.5 242.875 101.5 242.875 101.5 271.875 14.5 271.875"></polygon>
                <polygon id="Rectangle-path" fill="#F2CD30" points="14.5 279.125 101.5 279.125 101.5 286.375 14.5 286.375"></polygon>
                <path d="M101.5,315.375 L14.5,315.375 L14.5,308.125 L101.5,308.125 C101.475364,310.609445 102.139676,313.035313 101.5,315.375 Z" id="Shape" fill="#F2CD30"></path>
                <path d="M29,96.2051071 L57.9949194,116 L87,96.2051071 C86.7317449,92.1589327 86.4929573,87.8290548 86.283637,83.375 L57.9949194,102.691313 L29.7062018,83.375 L29,96.2051071 Z" id="Shape" fill="#FFE4CC"></path>
                <path d="M76.3977274,120.012623 C75.183817,115.156982 78.1360233,110.236638 82.9916647,109.022727 C87.847306,107.808817 92.7676498,110.761023 93.9815602,115.616665 C94.9728419,119.581792 96.7783551,122.024545 102.472799,127.718989 C110.372105,135.618295 113.702009,140.123458 115.73156,148.241665 C116.945471,153.097306 113.993264,158.01765 109.137623,159.23156 C104.281982,160.445471 99.3616377,157.493264 98.1477274,152.637623 C97.1564456,148.672496 95.3509325,146.229743 89.6564886,140.535299 C81.7571825,132.635993 78.427279,128.130829 76.3977274,120.012623 Z" id="foam" fill="#FFFFFF"></path>
                <path d="M45.3125,18.125 C40.3074195,18.125 36.25,14.0675805 36.25,9.0625 C36.25,4.05741945 40.3074195,-8.04911693e-16 45.3125,0 L70.0319752,3.21964677e-15 C82.2873058,6.0368377e-16 92.4964968,9.39458538 93.513245,21.6076666 L96.0312576,51.8537896 C96.4464979,56.8416155 92.7396849,61.221666 87.751859,61.6369063 C82.7640332,62.0521465 78.3839826,58.3453335 77.9687424,53.3575077 L75.4507298,23.1113846 C75.2160956,20.2929812 72.8601284,18.125 70.0319752,18.125 L45.3125,18.125 Z" id="foam" fill="#FFFFFF"></path>
                <path d="M97.875,179.4375 C97.875,174.432419 101.932419,170.375 106.9375,170.375 C111.942581,170.375 116,174.432419 116,179.4375 L116,183.0625 C116,188.067581 111.942581,192.125 106.9375,192.125 C101.932419,192.125 97.875,188.067581 97.875,183.0625 L97.875,179.4375 Z" id="foam" fill="#FFFFFF"></path>
            </g>
            <path d="M0,301 L452,301 L452,505 C452,521.016258 439.016258,534 423,534 L29,534 C12.9837423,534 5.51413956e-15,521.016258 3.55271368e-15,505 L0,301 Z M292,338.546486 C292,333.268108 287.684174,329 282.346783,329 L169.653217,329 C164.315826,329 160,333.268108 160,338.546486 L160,361.453514 C160,366.731892 164.315826,371 169.653217,371 L282.346783,371 C287.684174,371 292,366.731892 292,361.453514 L292,338.546486 Z" id="Combined-Shape" fill="#F05638" fill-rule="nonzero"></path>
            <path d="M292,364.388571 C292,369.702857 287.684174,374 282.346783,374 L169.653217,374 C164.315826,374 160,369.702857 160,364.388571 L292,364.388571 Z" id="handle" fill="#E34728" fill-rule="nonzero"></path>
            <rect id="sidewalls" fill="#FF7D6C" fill-rule="nonzero" transform="translate(226.000000, 305.000000) rotate(-180.000000) translate(-226.000000, -305.000000) " x="0" y="301" width="452" height="8"></rect>
            <path d="M362,372.5 C356.753295,372.5 352.5,368.246705 352.5,363 C352.5,357.753295 356.753295,353.5 362,353.5 L379,353.5 C384.246705,353.5 388.5,357.753295 388.5,363 C388.5,368.246705 384.246705,372.5 379,372.5 L362,372.5 Z" id="depth" fill="#E74F31" fill-rule="nonzero"></path>
            <path d="M73,392 L379,392 C387.284271,392 394,398.715729 394,407 L394,534 L58,534 L58,407 C58,398.715729 64.7157288,392 73,392 Z" id="depth" fill="#E74F31"></path>
        </g>
    </g>
</svg>