<?xml version="1.0" encoding="UTF-8"?>
<svg width="87px" height="21px" viewBox="0 0 87 21" version="1.1" xmlns="http://www.w3.org/2000/svg" xmlns:xlink="http://www.w3.org/1999/xlink">
    <!-- Generator: Sketch 48.2 (47327) - http://www.bohemiancoding.com/sketch -->
    <title>logo</title>
    <desc>Created with Sketch.</desc>
    <defs></defs>
    <g id="assets" stroke="none" stroke-width="1" fill="none" fill-rule="evenodd" transform="translate(-137.000000, -55.000000)">
        <g id="logo" transform="translate(137.000000, 55.000000)">
            <path d="M0.2,0.176 L8.72,0.176 C12.776,0.176 15.392,1.856 15.392,4.424 C15.392,6.08 14.288,7.496 12.56,8.024 C14.576,8.48 15.896,10.16 15.896,12.272 C15.896,15.152 13.232,17 9.128,17 L0.2,17 L0.2,0.176 Z M5.744,4.256 L5.744,6.656 L8.408,6.656 C9.176,6.656 9.68,6.176 9.68,5.432 C9.68,4.712 9.176,4.256 8.408,4.256 L5.744,4.256 Z M5.744,10.352 L5.744,12.92 L8.408,12.92 C9.44,12.92 10.112,12.392 10.112,11.576 C10.112,10.832 9.44,10.352 8.408,10.352 L5.744,10.352 Z M23.744,3.68 C28.328,3.68 31.016,6.8 30.728,11.648 L22.184,11.648 C22.544,12.68 23.312,13.208 24.368,13.208 C25.28,13.208 26.216,12.8 27.032,12.032 L29.84,14.792 C28.448,16.328 26.432,17.192 23.888,17.192 C19.4,17.192 16.736,14.552 16.736,10.496 C16.736,6.344 19.52,3.68 23.744,3.68 Z M22.064,9.152 L25.328,9.152 C25.4,8.072 24.728,7.28 23.792,7.28 C22.856,7.28 22.28,8.048 22.064,9.152 Z M38.48,3.68 C43.064,3.68 45.752,6.8 45.464,11.648 L36.92,11.648 C37.28,12.68 38.048,13.208 39.104,13.208 C40.016,13.208 40.952,12.8 41.768,12.032 L44.576,14.792 C43.184,16.328 41.168,17.192 38.624,17.192 C34.136,17.192 31.472,14.552 31.472,10.496 C31.472,6.344 34.256,3.68 38.48,3.68 Z M36.8,9.152 L40.064,9.152 C40.136,8.072 39.464,7.28 38.528,7.28 C37.592,7.28 37.016,8.048 36.8,9.152 Z M52.568,3.872 L52.568,5.792 C53.48,4.424 54.872,3.632 56.576,3.632 L56.576,8.504 C54.152,8.144 52.568,9.008 52.568,10.736 L52.568,17 L47.168,17 L47.168,3.872 L52.568,3.872 Z" id="Beer" fill="#FFFFFF"></path>
            <path d="M71.5351562,12.5507813 L70.8554688,14.4257813 C70.5507797,15.277348 70.0976593,15.9023418 69.4960938,16.3007813 C68.8945282,16.6992207 68.2070351,16.8984375 67.4335938,16.8984375 C66.3710884,16.8984375 65.6562518,16.5859406 65.2890625,15.9609375 C65.1015616,15.6406234 65.0078125,15.2539085 65.0078125,14.8007813 C65.0078125,14.4179668 65.0703119,13.9960961 65.1953125,13.5351563 L65.734375,11.4726563 C65.124997,12.9336011 64.5390653,14.0566367 63.9765625,14.8417969 C63.4140597,15.6269571 62.8417998,16.1660142 62.2597656,16.4589844 C61.6777315,16.7519546 61.0078163,16.8984375 60.25,16.8984375 C59.5234339,16.8984375 58.9667988,16.7285173 58.5800781,16.3886719 C58.1933574,16.0488264 58,15.5507845 58,14.8945313 C58,14.441404 58.1015615,13.8984407 58.3046875,13.265625 L60.6367188,6.140625 C60.7148441,5.90624883 60.7539062,5.71484449 60.7539062,5.56640625 C60.7539062,5.2773423 60.6171889,5.1328125 60.34375,5.1328125 C59.8749977,5.1328125 59.4531269,5.63671371 59.078125,6.64453125 L58.5742188,7.9921875 L58.1171875,7.9921875 L58.7148438,6.234375 C59.2929716,4.58592926 60.4374914,3.76171875 62.1484375,3.76171875 C62.953129,3.76171875 63.5761697,3.95116998 64.0175781,4.33007813 C64.4589866,4.70898627 64.6796875,5.27343375 64.6796875,6.0234375 C64.6796875,6.57812777 64.5625012,7.20312152 64.328125,7.8984375 L62.265625,14.109375 C62.1328118,14.5312521 62.0664062,14.843749 62.0664062,15.046875 C62.0664062,15.2890637 62.1484367,15.4101563 62.3125,15.4101563 C62.703127,15.4101563 63.1992157,14.9218799 63.8007812,13.9453125 C64.4023468,12.9687451 65.0234343,11.7011797 65.6640625,10.1425781 C66.3046907,8.58397658 66.8671851,6.97657078 67.3515625,5.3203125 L67.6679688,4.1015625 C69.4336026,4.07812488 70.8828068,3.96484477 72.015625,3.76171875 L68.9921875,14.5195312 C68.8906245,14.8476579 68.8398438,15.0781243 68.8398438,15.2109375 C68.8398438,15.4218761 68.9609363,15.5273438 69.203125,15.5273438 C69.4531262,15.5273438 69.6835927,15.4140636 69.8945312,15.1875 C70.1054698,14.9609364 70.3164052,14.5703153 70.5273438,14.015625 L71.078125,12.5507813 L71.5351562,12.5507813 Z M79.5859375,6.4921875 C80.0625024,5.55468281 80.5859346,4.86523658 81.15625,4.42382812 C81.7265654,3.98241967 82.3632777,3.76171875 83.0664062,3.76171875 C84.1679743,3.76171875 84.9921848,4.09765289 85.5390625,4.76953125 C86.0859402,5.44140961 86.359375,6.41014992 86.359375,7.67578125 C86.359375,8.99610035 86.062503,10.3769459 85.46875,11.8183594 C84.874997,13.2597728 84.0253962,14.466792 82.9199219,15.4394531 C81.8144476,16.4121142 80.5351635,16.8984375 79.0820312,16.8984375 C78.1835893,16.8984375 77.4218781,16.7343766 76.796875,16.40625 L76.3046875,18.1640625 C76.1796869,18.6250023 76.1171875,18.9765613 76.1171875,19.21875 C76.1171875,19.6718773 76.2734359,19.9785148 76.5859375,20.1386719 C76.8984391,20.2988289 77.4023403,20.3867187 78.0976562,20.4023438 L77.9570312,20.90625 C77.7148425,20.8984375 77.1660199,20.8789064 76.3105469,20.8476562 C75.4550738,20.8164061 74.6132854,20.8007812 73.7851562,20.8007812 C73.02734,20.8007812 72.2421916,20.8164061 71.4296875,20.8476562 C70.6171834,20.8789064 70.1132822,20.8984375 69.9179688,20.90625 L70.0585938,20.4023438 C70.4492207,20.4023438 70.7617176,20.3574223 70.9960938,20.2675781 C71.2304699,20.1777339 71.417968,20.0273448 71.5585938,19.8164062 C71.6992195,19.6054677 71.8242182,19.3046895 71.9335938,18.9140625 L76.2109375,3.48046875 C75.7890604,4.45703613 75.3046902,5.3378867 74.7578125,6.12304688 C74.2109348,6.90820705 73.5507851,7.72265203 72.7773438,8.56640625 L72.5078125,8.25 C73.1953159,7.47655863 73.7617165,6.79687793 74.2070312,6.2109375 C74.652346,5.62499707 75.1035133,4.90430115 75.5605469,4.04882812 C76.0175804,3.1933551 76.472654,2.14844367 76.9257812,0.9140625 C78.4961016,0.773436797 79.9921804,0.468752344 81.4140625,0 L79.5859375,6.4921875 Z M76.9140625,16.0078125 C77.1171885,16.0703128 77.3203115,16.1015625 77.5234375,16.1015625 C78.2187535,16.1015625 78.9062466,15.6503951 79.5859375,14.7480469 C80.2656284,13.8456986 80.8203104,12.7070381 81.25,11.3320312 C81.6796896,9.95702438 81.8945312,8.62110023 81.8945312,7.32421875 C81.8945312,6.77734102 81.871094,6.36328266 81.8242188,6.08203125 C81.7773435,5.80077984 81.712891,5.61328172 81.6308594,5.51953125 C81.5488277,5.42578078 81.4453131,5.37890625 81.3203125,5.37890625 C80.9687482,5.37890625 80.5917989,5.65038791 80.1894531,6.19335938 C79.7871074,6.73633084 79.410158,7.46093297 79.0585938,8.3671875 L76.9140625,16.0078125 Z" id="up" fill="#FFC80A"></path>
        </g>
    </g>
</svg>